<?xml version="1.0" encoding="UTF-8" standalone="no"?>
<svg
   xmlns:dc="http://purl.org/dc/elements/1.1/"
   xmlns:cc="http://creativecommons.org/ns#"
   xmlns:rdf="http://www.w3.org/1999/02/22-rdf-syntax-ns#"
   xmlns:svg="http://www.w3.org/2000/svg"
   xmlns="http://www.w3.org/2000/svg"
   viewBox="0 0 341.25 194.505"
   height="194.505"
   width="341.25"
   xml:space="preserve"
   version="1.1"
   id="svg2"><metadata
     id="metadata8"><rdf:RDF><cc:Work
         rdf:about=""><dc:format>image/svg+xml</dc:format><dc:type
           rdf:resource="http://purl.org/dc/dcmitype/StillImage" /></cc:Work></rdf:RDF></metadata><defs
     id="defs6"><clipPath
       id="clipPath64"
       clipPathUnits="userSpaceOnUse"><path
         id="path66"
         d="m 0,155.604 273,0 L 273,0 0,0 0,155.604 Z" /></clipPath></defs><g
     transform="matrix(1.25,0,0,-1.25,0,194.505)"
     id="g10"><g
       transform="translate(46.4225,70.5862)"
       id="g12"><path
         id="path14"
         style="fill:#c1c3c6;fill-opacity:1;fill-rule:evenodd;stroke:none"
         d="M 0,0 15.587,-6.914 36.748,-1.26 40.707,-2.836 15.587,-9.724 -3.85,-0.926 0,0 Z" /></g><g
       transform="translate(62.0097,48.6687)"
       id="g16"><path
         id="path18"
         style="fill:#e7e8e9;fill-opacity:1;fill-rule:evenodd;stroke:none"
         d="m 0,0 -19.398,19.081 -0.04,1.91 L 0,12.194 0,0 Z" /></g><g
       transform="translate(62.0097,48.6687)"
       id="g20"><path
         id="path22"
         style="fill:#939496;fill-opacity:1;fill-rule:evenodd;stroke:none"
         d="M 0,0 0,12.194 25.12,19.081 25.067,17.056 0,0 Z" /></g><g
       transform="translate(87.2006,69.726)"
       id="g24"><path
         id="path26"
         style="fill:#939496;fill-opacity:1;fill-rule:evenodd;stroke:none"
         d="m 0,0 -4.03,-1.077 -21.161,-5.653 0,8.747 L 0.219,8.251 0,0 Z" /></g><g
       transform="translate(62.0097,71.7435)"
       id="g28"><path
         id="path30"
         style="fill:#e7e8e9;fill-opacity:1;fill-rule:evenodd;stroke:none"
         d="m 0,0 0,-8.748 -15.587,6.914 -3.905,1.732 -0.169,8.268 L 0,0 Z" /></g><g
       transform="translate(46.6952,80.8412)"
       id="g32"><path
         id="path34"
         style="fill:#c1c3c6;fill-opacity:1;fill-rule:evenodd;stroke:none"
         d="m 0,0 15.314,-6.218 20.94,4.987 4.471,-1.633 L 15.314,-9.098 -4.346,-0.932 0,0 Z" /></g><g
       transform="translate(46.6952,79.8264)"
       id="g36"><path
         id="path38"
         style="fill:#e7e8e9;fill-opacity:1;fill-rule:evenodd;stroke:none"
         d="m 0,0 -4.402,1.788 -0.173,8.459 19.889,-7.5 0,-8.965 L 0,0 Z" /></g><g
       transform="translate(82.9493,78.5952)"
       id="g40"><path
         id="path42"
         style="fill:#939496;fill-opacity:1;fill-rule:evenodd;stroke:none"
         d="m 0,0 -20.94,-4.987 0,8.966 L 4.766,9.525 4.542,1.082 0,0 Z" /></g><g
       transform="translate(87.7156,88.1205)"
       id="g44"><path
         id="path46"
         style="fill:#c1c3c6;fill-opacity:1;fill-rule:evenodd;stroke:none"
         d="m 0,0 -25.706,-5.547 -19.889,7.5 25.353,4.761 L 0,0 Z" /></g><g
       transform="translate(46.6952,90.313)"
       id="g48"><path
         id="path50"
         style="fill:#e7e8e9;fill-opacity:1;fill-rule:evenodd;stroke:none"
         d="m 0,0 -4.402,1.788 -0.173,8.459 19.889,-7.5 0,-8.965 L 0,0 Z" /></g><g
       transform="translate(82.9493,89.0818)"
       id="g52"><path
         id="path54"
         style="fill:#939496;fill-opacity:1;fill-rule:evenodd;stroke:none"
         d="m 0,0 -20.94,-4.987 0,8.966 L 4.766,9.525 4.542,1.082 0,0 Z" /></g><g
       transform="translate(87.7156,98.6071)"
       id="g56"><path
         id="path58"
         style="fill:#c1c3c6;fill-opacity:1;fill-rule:evenodd;stroke:none"
         d="m 0,0 -25.706,-5.547 -19.889,7.5 25.353,4.761 L 0,0 Z" /></g><g
       id="g60"><g
         clip-path="url(#clipPath64)"
         id="g62"><g
           transform="translate(106.8167,77.4572)"
           id="g68"><path
             id="path70"
             style="fill:#6f6b68;fill-opacity:1;fill-rule:nonzero;stroke:none"
             d="M 0,0 C -2.115,0 -3.669,0.491 -4.661,1.475 -5.654,2.458 -6.15,3.996 -6.15,6.09 l 0,10.257 c 0,2.244 0.512,3.874 1.538,4.889 1.024,1.014 2.67,1.522 4.936,1.522 l 11.655,0 0,-4.532 -10.36,0 c -1.295,0 -1.942,-0.644 -1.942,-1.933 l 0,-10.312 c 0,-0.494 0.145,-0.886 0.436,-1.176 0.292,-0.29 0.686,-0.434 1.182,-0.434 l 1.425,0 1.683,0 1.765,0 c 0.593,0 1.17,0.091 1.731,0.275 l 4.08,0 0,-4.231 C 10.532,0.138 9.098,0 7.673,0 L 3.771,0 0,0 Z" /></g><g
           transform="translate(135.6292,84.6765)"
           id="g72"><path
             id="path74"
             style="fill:#6f6b68;fill-opacity:1;fill-rule:nonzero;stroke:none"
             d="m 0,0 c 0,1.295 -0.647,1.942 -1.942,1.942 l -6.475,0 0,-4.532 6.475,0 C -0.647,-2.59 0,-1.942 0,-0.647 L 0,0 Z m -0.972,9.064 c 0,1.295 -0.647,1.943 -1.942,1.943 l -5.503,0 0,-4.532 5.503,0 c 1.295,0 1.942,0.647 1.942,1.942 l 0,0.647 z m -13.272,6.475 12.949,0 c 2.115,0 3.669,-0.48 4.662,-1.441 0.992,-0.96 1.488,-2.423 1.488,-4.386 0,-1.295 -0.28,-2.347 -0.84,-3.156 C 3.453,5.746 2.763,5.18 1.942,4.856 2.417,4.727 2.892,4.521 3.367,4.241 3.841,3.96 4.257,3.582 4.613,3.108 4.969,2.633 5.261,2.056 5.487,1.376 c 0.227,-0.68 0.34,-1.462 0.34,-2.347 0,-2.115 -0.497,-3.67 -1.489,-4.662 -0.993,-0.993 -2.547,-1.489 -4.662,-1.489 l -13.92,0 0,22.661 z" /></g><g
           transform="translate(151.3294,85.8093)"
           id="g76"><path
             id="path78"
             style="fill:#6f6b68;fill-opacity:1;fill-rule:nonzero;stroke:none"
             d="M 0,0 5.18,0 2.59,7.608 0,0 Z m -2.913,-8.255 -6.313,0 8.579,22.661 6.474,0 8.579,-22.661 -6.312,0 -1.457,4.047 -8.094,0 -1.456,-4.047 z" /></g><g
           transform="translate(172.5335,91.4748)"
           id="g80"><path
             id="path82"
             style="fill:#6f6b68;fill-opacity:1;fill-rule:nonzero;stroke:none"
             d="m 0,0 c 0,-1.295 0.647,-1.942 1.942,-1.942 l 6.475,0 0,6.15 -6.475,0 C 0.647,4.208 0,3.561 0,2.266 L 0,0 Z m 14.244,-13.92 -5.827,0 0,7.445 -4.37,0 L 0,-13.92 l -6.151,0 4.209,7.769 c -1.382,0.324 -2.374,0.982 -2.979,1.975 -0.604,0.992 -0.906,2.384 -0.906,4.176 l 0,2.266 c 0,2.266 0.513,3.912 1.538,4.937 1.024,1.025 2.67,1.538 4.936,1.538 l 13.597,0 0,-22.661 z" /></g><g
           transform="translate(217.888,100.215)"
           id="g84"><path
             id="path86"
             style="fill:#6f6b68;fill-opacity:1;fill-rule:nonzero;stroke:none"
             d="m 0,0 -5.685,0 -3.038,-8.805 -2.791,0 0,8.805 -5.382,0 0,-8.805 -2.791,0 -3.039,8.805 -5.684,0 3.9,-11.315 -3.9,-11.345 5.684,0 3.039,8.82 2.791,0 0,-8.82 5.382,0 0,8.82 2.791,0 3.038,-8.82 5.685,0 -3.9,11.345 L 0,0 Z" /></g><g
           transform="translate(107.3512,71.4765)"
           id="g88"><path
             id="path90"
             style="fill:#939496;fill-opacity:1;fill-rule:nonzero;stroke:none"
             d="m 0,0 c 0,0.32 -0.2,0.48 -0.599,0.48 l -0.898,0 0,-2.56 0.898,0 C -0.2,-2.08 0,-1.92 0,-1.6 L 0,0 Z m -4.589,-1.6 c 0,-0.32 0.199,-0.48 0.598,-0.48 l 0.898,0 0,2.56 -0.898,0 C -4.39,0.48 -4.589,0.32 -4.589,0 l 0,-1.6 z m 6.385,0 C 1.796,-2.16 1.638,-2.567 1.322,-2.82 1.006,-3.073 0.499,-3.2 -0.2,-3.2 l -1.197,0 0,-0.56 -1.796,0 0,0.56 -1.197,0 c -0.698,0 -1.206,0.127 -1.521,0.38 -0.317,0.253 -0.474,0.66 -0.474,1.22 l 0,1.6 c 0,0.56 0.157,0.966 0.474,1.22 0.315,0.253 0.823,0.38 1.521,0.38 l 1.197,0 0,0.56 1.796,0 0,-0.56 1.197,0 C 0.499,1.6 1.006,1.473 1.322,1.22 1.638,0.966 1.796,0.56 1.796,0 l 0,-1.6 z" /></g><g
           transform="translate(109.2965,73.4765)"
           id="g92"><path
             id="path94"
             style="fill:#939496;fill-opacity:1;fill-rule:nonzero;stroke:none"
             d="M 0,0 1.996,0 3.792,-2.84 5.288,0 7.283,0 4.739,-4.4 C 4.626,-4.603 4.501,-4.783 4.365,-4.94 4.229,-5.098 4.074,-5.231 3.901,-5.34 3.728,-5.45 3.53,-5.534 3.308,-5.592 3.084,-5.651 2.83,-5.68 2.544,-5.68 2.405,-5.68 2.27,-5.676 2.14,-5.668 2.011,-5.66 1.893,-5.651 1.786,-5.64 1.667,-5.629 1.553,-5.616 1.447,-5.6 l 0,1.08 0.898,0 c 0.099,0 0.183,0.017 0.249,0.052 0.067,0.034 0.116,0.078 0.15,0.132 0.033,0.053 0.05,0.11 0.05,0.172 0,0.061 -0.017,0.116 -0.05,0.164 L 0,0 Z" /></g><g
           transform="translate(123.314,67.8764)"
           id="g96"><path
             id="path98"
             style="fill:#939496;fill-opacity:1;fill-rule:nonzero;stroke:none"
             d="m 0,0 -1.796,0 0,2.28 -2.494,0 0,-2.28 -1.796,0 0,5.6 1.796,0 0,-2.2 2.494,0 0,2.2 L 0,5.6 0,0 Z" /></g><g
           transform="translate(129.2008,68.9966)"
           id="g100"><path
             id="path102"
             style="fill:#939496;fill-opacity:1;fill-rule:nonzero;stroke:none"
             d="m 0,0 0,3.36 -1.846,0 -0.15,-2 C -2.009,1.157 -2.045,0.973 -2.105,0.808 -2.165,0.643 -2.229,0.499 -2.295,0.376 -2.368,0.237 -2.451,0.112 -2.544,0 L 0,0 Z m -3.442,4.48 5.237,0 0,-4.48 0.749,0 0,-2.16 -1.696,0 -0.1,1.04 -3.891,0 -0.1,-1.04 -1.696,0 0,2.16 0.648,0 c 0.107,0.096 0.2,0.205 0.28,0.328 0.073,0.107 0.141,0.233 0.204,0.38 0.064,0.146 0.102,0.311 0.115,0.492 l 0.25,3.28 z" /></g><g
           transform="translate(134.9371,69.9165)"
           id="g104"><path
             id="path106"
             style="fill:#939496;fill-opacity:1;fill-rule:nonzero;stroke:none"
             d="M 0,0 1.596,0 0.798,1.88 0,0 Z m -0.898,-2.04 -1.945,0 2.643,5.6 1.996,0 2.644,-5.6 -1.946,0 -0.449,1 -2.494,0 -0.449,-1 z" /></g><g
           transform="translate(146.1114,70.9966)"
           id="g108"><path
             id="path110"
             style="fill:#939496;fill-opacity:1;fill-rule:nonzero;stroke:none"
             d="m 0,0 -1.397,-2 -1.397,0 -1.396,2 0,-3.12 -1.796,0 0,5.6 1.895,0 1.996,-2.96 1.995,2.96 1.896,0 0,-5.6 L 0,-3.12 0,0 Z" /></g><g
           transform="translate(154.8912,67.8764)"
           id="g112"><path
             id="path114"
             style="fill:#939496;fill-opacity:1;fill-rule:nonzero;stroke:none"
             d="m 0,0 -5.537,0 0,5.6 5.537,0 0,-1.12 -3.741,0 0,-1.08 2.943,0 0,-1.12 -2.943,0 0,-1.16 L 0,1.12 0,0 Z" /></g><g
           transform="translate(162.0245,67.8764)"
           id="g116"><path
             id="path118"
             style="fill:#939496;fill-opacity:1;fill-rule:nonzero;stroke:none"
             d="m 0,0 -1.796,0 0,2.28 -2.494,0 0,-2.28 -1.796,0 0,5.6 1.796,0 0,-2.2 2.494,0 0,2.2 L 0,5.6 0,0 Z" /></g><g
           transform="translate(166.8634,67.8764)"
           id="g120"><path
             id="path122"
             style="fill:#939496;fill-opacity:1;fill-rule:nonzero;stroke:none"
             d="m 0,0 -1.796,0 0,4.48 -2.096,0 0,1.12 5.987,0 0,-1.12 L 0,4.48 0,0 Z" /></g><g
           transform="translate(179.2345,67.8764)"
           id="g124"><path
             id="path126"
             style="fill:#939496;fill-opacity:1;fill-rule:nonzero;stroke:none"
             d="m 0,0 -1.796,0 0,2.28 -2.494,0 0,-2.28 -1.796,0 0,5.6 1.796,0 0,-2.2 2.494,0 0,2.2 L 0,5.6 0,0 Z" /></g><g
           transform="translate(182.8262,69.9165)"
           id="g128"><path
             id="path130"
             style="fill:#939496;fill-opacity:1;fill-rule:nonzero;stroke:none"
             d="M 0,0 1.596,0 0.798,1.88 0,0 Z m -0.898,-2.04 -1.946,0 2.644,5.6 1.995,0 2.644,-5.6 -1.945,0 -0.449,1 -2.494,0 -0.449,-1 z" /></g><g
           transform="translate(195.6466,69.6362)"
           id="g132"><path
             id="path134"
             style="fill:#939496;fill-opacity:1;fill-rule:nonzero;stroke:none"
             d="m 0,0 c 0,0.32 -0.199,0.48 -0.599,0.48 l -1.995,0 0,-1.12 1.995,0 c 0.4,0 0.599,0.16 0.599,0.48 L 0,0 Z m -0.299,2.24 c 0,0.32 -0.2,0.48 -0.598,0.48 l -1.697,0 0,-1.12 1.697,0 c 0.398,0 0.598,0.16 0.598,0.48 l 0,0.16 z m -4.091,1.6 3.992,0 C 0.253,3.84 0.731,3.722 1.038,3.484 1.344,3.247 1.497,2.885 1.497,2.4 1.497,2.08 1.41,1.82 1.237,1.62 1.064,1.42 0.852,1.28 0.599,1.2 0.745,1.168 0.892,1.118 1.038,1.048 1.184,0.979 1.312,0.885 1.422,0.768 1.531,0.651 1.621,0.508 1.691,0.34 1.761,0.172 1.796,-0.021 1.796,-0.24 1.796,-0.763 1.643,-1.146 1.337,-1.392 1.031,-1.637 0.552,-1.76 -0.1,-1.76 l -4.29,0 0,5.6 z" /></g><g
           transform="translate(204.127,67.8764)"
           id="g136"><path
             id="path138"
             style="fill:#939496;fill-opacity:1;fill-rule:nonzero;stroke:none"
             d="m 0,0 -5.537,0 0,5.6 5.537,0 0,-1.12 -3.741,0 0,-1.08 2.943,0 0,-1.12 -2.943,0 0,-1.16 L 0,1.12 0,0 Z" /></g><g
           transform="translate(209.3643,70.7163)"
           id="g140"><path
             id="path142"
             style="fill:#939496;fill-opacity:1;fill-rule:nonzero;stroke:none"
             d="m 0,0 1.945,-2.84 -1.895,0 -1.547,2.28 -0.898,0 0,-2.28 -1.795,0 0,5.6 1.795,0 0,-2.2 0.898,0 0.998,1.52 C -0.353,2.304 -0.172,2.487 0.045,2.628 0.261,2.77 0.545,2.84 0.897,2.84 1.011,2.84 1.12,2.836 1.227,2.828 1.333,2.82 1.43,2.811 1.517,2.8 1.616,2.784 1.709,2.771 1.796,2.76 l 0,-1.08 -0.4,0 C 1.297,1.68 1.207,1.655 1.127,1.604 1.048,1.553 0.987,1.499 0.947,1.44 L 0,0 Z" /></g><g
           transform="translate(214.3038,69.9165)"
           id="g144"><path
             id="path146"
             style="fill:#939496;fill-opacity:1;fill-rule:nonzero;stroke:none"
             d="M 0,0 1.596,0 0.798,1.88 0,0 Z m -0.898,-2.04 -1.946,0 2.644,5.6 1.995,0 2.644,-5.6 -1.945,0 -0.449,1 -2.494,0 -0.449,-1 z" /></g></g></g></g></svg>