<?xml version="1.0" encoding="utf-8"?>
<!-- Generator: Adobe Illustrator 19.0.0, SVG Export Plug-In . SVG Version: 6.00 Build 0)  -->
<svg version="1.1" id="Слой_1" xmlns="http://www.w3.org/2000/svg" xmlns:xlink="http://www.w3.org/1999/xlink" x="0px" y="0px"
	 viewBox="-217 -56.7 176.6 56.7" style="enable-background:new -217 -56.7 176.6 56.7;" xml:space="preserve">
<style type="text/css">
	.st0{fill-rule:evenodd;clip-rule:evenodd;fill:#BBBAB2;}
	.st1{fill-rule:evenodd;clip-rule:evenodd;fill:#E7E8E2;}
	.st2{fill-rule:evenodd;clip-rule:evenodd;fill:#79746F;}
	.st3{fill:#70B22B;}
	.st4{fill:#1A1A1A;}
</style>
<polygon class="st0" points="-212.7,-21.9 -197.1,-15 -176,-20.7 -172,-19.1 -197.1,-12.2 -216.6,-21 "/>
<polygon class="st1" points="-197.1,0 -216.5,-19.1 -216.6,-21 -197.1,-12.2 "/>
<polygon class="st2" points="-197.1,0 -197.1,-12.2 -172,-19.1 -172.1,-17.1 "/>
<polygon class="st2" points="-171.9,-21.1 -176,-20 -197.1,-14.4 -197.1,-23.1 -171.7,-29.3 "/>
<polygon class="st1" points="-197.1,-23.1 -197.1,-14.4 -212.7,-21.3 -216.6,-23 -216.8,-31.3 "/>
<polygon class="st0" points="-212.4,-32.2 -197.1,-26 -176.2,-31 -171.7,-29.3 -197.1,-23.1 -216.8,-31.3 "/>
<polygon class="st1" points="-212.4,-31.2 -216.8,-33 -217,-41.4 -197.1,-33.9 -197.1,-25 "/>
<polygon class="st2" points="-176.2,-30 -197.1,-25 -197.1,-33.9 -171.4,-39.5 -171.6,-31 "/>
<polygon class="st0" points="-171.4,-39.5 -197.1,-33.9 -217,-41.4 -191.7,-46.2 "/>
<polygon class="st1" points="-212.4,-41.7 -216.8,-43.5 -217,-51.9 -197.1,-44.4 -197.1,-35.4 "/>
<polygon class="st2" points="-176.2,-40.4 -197.1,-35.4 -197.1,-44.4 -171.4,-50 -171.6,-41.5 "/>
<polygon class="st0" points="-171.4,-50 -197.1,-44.4 -217,-51.9 -191.7,-56.7 "/>
<path class="st3" d="M-152.3-28.8c-2.1,0-3.7-0.5-4.7-1.5c-1-1-1.5-2.5-1.5-4.6v-10.3c0-2.2,0.5-3.9,1.5-4.9c1-1,2.7-1.5,4.9-1.5
	h11.7v4.5h-10.4c-1.3,0-1.9,0.6-1.9,1.9v10.3c0,0.5,0.1,0.9,0.4,1.2c0.3,0.3,0.7,0.4,1.2,0.4c0.4,0,0.9,0,1.4,0c0.5,0,1.1,0,1.7,0
	s1.2,0,1.8,0c0.6,0,1.2-0.1,1.7-0.3c1.3,0,2.7,0,4.1,0v4.2c-1.4,0.3-2.9,0.4-4.3,0.4c-1.2,0-2.5,0-3.9,0
	C-149.9-28.8-151.2-28.8-152.3-28.8z"/>
<path class="st3" d="M-137.7-51.6h12.9c2.1,0,3.7,0.5,4.7,1.4c1,1,1.5,2.4,1.5,4.4c0,1.3-0.3,2.3-0.8,3.2c-0.6,0.8-1.3,1.4-2.1,1.7
	c0.5,0.1,0.9,0.3,1.4,0.6c0.5,0.3,0.9,0.7,1.2,1.1c0.4,0.5,0.6,1.1,0.9,1.7c0.2,0.7,0.3,1.5,0.3,2.3c0,2.1-0.5,3.7-1.5,4.7
	c-1,1-2.5,1.5-4.7,1.5h-13.9V-51.6z M-124.5-45.1c0-1.3-0.6-1.9-1.9-1.9h-5.5v4.5h5.5c1.3,0,1.9-0.6,1.9-1.9V-45.1z M-123.5-36
	c0-1.3-0.6-1.9-1.9-1.9h-6.5v4.5h6.5c1.3,0,1.9-0.6,1.9-1.9V-36z"/>
<path class="st3" d="M-110.7-28.9h-6.3l8.6-22.7h6.5l8.6,22.7h-6.3l-1.5-4h-8.1L-110.7-28.9z M-107.8-37.2h5.2l-2.6-7.6L-107.8-37.2
	z"/>
<path class="st3" d="M-72.4-28.9h-5.8v-7.4h-4.4l-4,7.4h-6.2l4.2-7.8c-1.4-0.3-2.4-1-3-2s-0.9-2.4-0.9-4.2v-2.3
	c0-2.3,0.5-3.9,1.5-4.9c1-1,2.7-1.5,4.9-1.5h13.6V-28.9z M-86.6-42.8c0,1.3,0.6,1.9,1.9,1.9h6.5V-47h-6.5c-1.3,0-1.9,0.6-1.9,1.9
	V-42.8z"/>
<polygon class="st3" points="-41.2,-51.6 -46.9,-51.6 -50,-42.8 -52.8,-42.8 -52.8,-51.6 -58.1,-51.6 -58.1,-42.8 -60.9,-42.8 
	-64,-51.6 -69.7,-51.6 -65.8,-40.3 -69.7,-28.9 -64,-28.9 -60.9,-37.7 -58.1,-37.7 -58.1,-28.9 -52.8,-28.9 -52.8,-37.7 -50,-37.7 
	-46.9,-28.9 -41.2,-28.9 -45.1,-40.3 "/>
<g>
	<path class="st4" d="M-150-21.2c0,0.6-0.2,1-0.5,1.2c-0.3,0.3-0.8,0.4-1.5,0.4h-1.2v0.6h-1.8v-0.6h-1.2c-0.7,0-1.2-0.1-1.5-0.4
		c-0.3-0.3-0.5-0.7-0.5-1.2v-1.6c0-0.6,0.2-1,0.5-1.2c0.3-0.3,0.8-0.4,1.5-0.4h1.2V-25h1.8v0.6h1.2c0.7,0,1.2,0.1,1.5,0.4
		s0.5,0.7,0.5,1.2V-21.2z M-156.4-21.2c0,0.3,0.2,0.5,0.6,0.5h0.9v-2.6h-0.9c-0.4,0-0.6,0.2-0.6,0.5V-21.2z M-151.8-22.8
		c0-0.3-0.2-0.5-0.6-0.5h-0.9v2.6h0.9c0.4,0,0.6-0.2,0.6-0.5V-22.8z"/>
	<path class="st4" d="M-149.8-24.8h2l1.8,2.8l1.5-2.8h2l-2.5,4.4c-0.1,0.2-0.2,0.4-0.4,0.5c-0.1,0.2-0.3,0.3-0.5,0.4
		c-0.2,0.1-0.4,0.2-0.6,0.3c-0.2,0.1-0.5,0.1-0.8,0.1c-0.1,0-0.3,0-0.4,0c-0.1,0-0.2,0-0.4,0c-0.1,0-0.2,0-0.3,0v-1.1h0.9
		c0.1,0,0.2,0,0.2-0.1s0.1-0.1,0.1-0.1c0-0.1,0.1-0.1,0.1-0.2c0-0.1,0-0.1-0.1-0.2L-149.8-24.8z"/>
	<path class="st4" d="M-135.8-19.2h-1.8v-2.3h-2.5v2.3h-1.8v-5.6h1.8v2.2h2.5v-2.2h1.8V-19.2z"/>
	<path class="st4" d="M-133.4-24.8h5.2v4.5h0.7v2.2h-1.7l-0.1-1h-3.9l-0.1,1h-1.7v-2.2h0.6c0.1-0.1,0.2-0.2,0.3-0.3
		c0.1-0.1,0.1-0.2,0.2-0.4c0.1-0.1,0.1-0.3,0.1-0.5L-133.4-24.8z M-129.9-20.4v-3.4h-1.8l-0.1,2c0,0.2,0,0.4-0.1,0.6
		c-0.1,0.2-0.1,0.3-0.2,0.4c-0.1,0.1-0.2,0.3-0.2,0.4H-129.9z"/>
	<path class="st4" d="M-125.1-19.2h-1.9l2.6-5.6h2l2.6,5.6h-1.9l-0.4-1h-2.5L-125.1-19.2z M-124.2-21.3h1.6l-0.8-1.9L-124.2-21.3z"
		/>
	<path class="st4" d="M-113-22.4l-1.4,2h-1.4l-1.4-2v3.1h-1.8v-5.6h1.9l2,3l2-3h1.9v5.6h-1.8V-22.4z"/>
	<path class="st4" d="M-104.2-19.2h-5.5v-5.6h5.5v1.1h-3.7v1.1h2.9v1.1h-2.9v1.2h3.7V-19.2z"/>
	<path class="st4" d="M-97.1-19.2h-1.8v-2.3h-2.5v2.3h-1.8v-5.6h1.8v2.2h2.5v-2.2h1.8V-19.2z"/>
	<path class="st4" d="M-92.3-19.2h-1.8v-4.5h-2.1v-1.1h6v1.1h-2.1V-19.2z"/>
	<path class="st4" d="M-79.9-19.2h-1.8v-2.3h-2.5v2.3H-86v-5.6h1.8v2.2h2.5v-2.2h1.8V-19.2z"/>
	<path class="st4" d="M-77.2-19.2h-1.9l2.6-5.6h2l2.6,5.6h-1.9l-0.4-1h-2.5L-77.2-19.2z M-76.3-21.3h1.6l-0.8-1.9L-76.3-21.3z"/>
	<path class="st4" d="M-67.9-24.8h4c0.7,0,1.1,0.1,1.4,0.4c0.3,0.2,0.5,0.6,0.5,1.1c0,0.3-0.1,0.6-0.3,0.8c-0.2,0.2-0.4,0.3-0.6,0.4
		c0.1,0,0.3,0.1,0.4,0.2c0.1,0.1,0.3,0.2,0.4,0.3s0.2,0.3,0.3,0.4c0.1,0.2,0.1,0.4,0.1,0.6c0,0.5-0.2,0.9-0.5,1.2
		c-0.3,0.2-0.8,0.4-1.4,0.4h-4.3V-24.8z M-63.8-23.2c0-0.3-0.2-0.5-0.6-0.5h-1.7v1.1h1.7c0.4,0,0.6-0.2,0.6-0.5V-23.2z M-63.5-21
		c0-0.3-0.2-0.5-0.6-0.5h-2v1.1h2c0.4,0,0.6-0.2,0.6-0.5V-21z"/>
	<path class="st4" d="M-55-19.2h-5.5v-5.6h5.5v1.1h-3.7v1.1h2.9v1.1h-2.9v1.2h3.7V-19.2z"/>
	<path class="st4" d="M-49.8-22.1l1.9,2.8h-1.9l-1.5-2.3h-0.9v2.3H-54v-5.6h1.8v2.2h0.9l1-1.5c0.1-0.2,0.3-0.4,0.5-0.5
		c0.2-0.1,0.5-0.2,0.9-0.2c0.1,0,0.2,0,0.3,0s0.2,0,0.3,0c0.1,0,0.2,0,0.3,0v1.1h-0.4c-0.1,0-0.2,0-0.3,0.1
		c-0.1,0.1-0.1,0.1-0.2,0.2L-49.8-22.1z"/>
	<path class="st4" d="M-45.7-19.2h-1.9l2.6-5.6h2l2.6,5.6h-1.9l-0.4-1h-2.5L-45.7-19.2z M-44.8-21.3h1.6l-0.8-1.9L-44.8-21.3z"/>
</g>
</svg>
