<?xml version="1.0" encoding="utf-8"?>
<!-- Generator: Adobe Illustrator 19.0.0, SVG Export Plug-In . SVG Version: 6.00 Build 0)  -->
<svg version="1.1" id="Слой_1" xmlns="http://www.w3.org/2000/svg" xmlns:xlink="http://www.w3.org/1999/xlink" x="0px" y="0px"
	 viewBox="0 0 176.6 56.7" style="enable-background:new 0 0 176.6 56.7;" xml:space="preserve">
<style type="text/css">
	.st0{fill-rule:evenodd;clip-rule:evenodd;fill:#71B226;}
	.st1{fill-rule:evenodd;clip-rule:evenodd;fill:#9ED55C;}
	.st2{fill-rule:evenodd;clip-rule:evenodd;fill:#389B2E;}
	.st3{fill:#1A1A1A;}
	.st4{fill:#79746F;}
</style>
<polygon id="XMLID_104_" class="st0" points="4.3,34.7 19.9,41.6 41.1,36 45,37.6 19.9,44.5 0.5,35.7 "/>
<polygon id="XMLID_65_" class="st1" points="19.9,56.7 0.5,37.6 0.5,35.7 19.9,44.5 "/>
<polygon id="XMLID_64_" class="st2" points="19.9,56.7 19.9,44.5 45,37.6 45,39.6 "/>
<polygon id="XMLID_63_" class="st2" points="45.1,35.6 41.1,36.7 19.9,42.3 19.9,33.6 45.3,27.3 "/>
<polygon id="XMLID_62_" class="st1" points="19.9,33.6 19.9,42.3 4.3,35.4 0.4,33.7 0.2,25.4 "/>
<polygon id="XMLID_61_" class="st0" points="4.6,24.5 19.9,30.7 40.8,25.7 45.3,27.3 19.9,33.6 0.2,25.4 "/>
<polygon id="XMLID_60_" class="st1" points="4.6,25.5 0.2,23.7 0,15.2 19.9,22.7 19.9,31.7 "/>
<polygon id="XMLID_59_" class="st2" points="40.8,26.7 19.9,31.7 19.9,22.7 45.6,17.2 45.4,25.6 "/>
<polygon id="XMLID_58_" class="st0" points="45.6,17.2 19.9,22.7 0,15.2 25.4,10.5 "/>
<polygon id="XMLID_57_" class="st1" points="4.6,15 0.2,13.2 0,4.8 19.9,12.3 19.9,21.2 "/>
<polygon id="XMLID_56_" class="st2" points="40.8,16.2 19.9,21.2 19.9,12.3 45.6,6.7 45.4,15.2 "/>
<polygon id="XMLID_55_" class="st0" points="45.6,6.7 19.9,12.3 0,4.8 25.4,0 "/>
<path id="XMLID_53_" class="st3" d="M64.7,27.9c-2.1,0-3.7-0.5-4.7-1.5c-1-1-1.5-2.5-1.5-4.6V11.5c0-2.2,0.5-3.9,1.5-4.9
	c1-1,2.7-1.5,4.9-1.5h11.7v4.5H66.3c-1.3,0-1.9,0.6-1.9,1.9v10.3c0,0.5,0.1,0.9,0.4,1.2c0.3,0.3,0.7,0.4,1.2,0.4c0.4,0,0.9,0,1.4,0
	c0.5,0,1.1,0,1.7,0s1.2,0,1.8,0c0.6,0,1.2-0.1,1.7-0.3c1.3,0,2.7,0,4.1,0v4.2c-1.4,0.3-2.9,0.4-4.3,0.4c-1.2,0-2.5,0-3.9,0
	C67.1,27.9,65.8,27.9,64.7,27.9z"/>
<path id="XMLID_49_" class="st3" d="M79.3,5.1h12.9c2.1,0,3.7,0.5,4.7,1.4c1,1,1.5,2.4,1.5,4.4c0,1.3-0.3,2.3-0.8,3.2
	c-0.6,0.8-1.3,1.4-2.1,1.7c0.5,0.1,0.9,0.3,1.4,0.6c0.5,0.3,0.9,0.7,1.2,1.1c0.4,0.5,0.6,1.1,0.9,1.7c0.2,0.7,0.3,1.5,0.3,2.3
	c0,2.1-0.5,3.7-1.5,4.7c-1,1-2.5,1.5-4.7,1.5H79.3V5.1z M92.5,11.6c0-1.3-0.6-1.9-1.9-1.9h-5.5v4.5h5.5c1.3,0,1.9-0.6,1.9-1.9V11.6z
	 M93.5,20.6c0-1.3-0.6-1.9-1.9-1.9h-6.5v4.5h6.5c1.3,0,1.9-0.6,1.9-1.9V20.6z"/>
<path id="XMLID_46_" class="st3" d="M106.3,27.8H100l8.6-22.7h6.5l8.6,22.7h-6.3l-1.5-4h-8.1L106.3,27.8z M109.2,19.5h5.2l-2.6-7.6
	L109.2,19.5z"/>
<path id="XMLID_43_" class="st3" d="M144.7,27.8h-5.8v-7.4h-4.4l-4,7.4h-6.2l4.2-7.8c-1.4-0.3-2.4-1-3-2s-0.9-2.4-0.9-4.2v-2.3
	c0-2.3,0.5-3.9,1.5-4.9c1-1,2.7-1.5,4.9-1.5h13.6V27.8z M130.4,13.8c0,1.3,0.6,1.9,1.9,1.9h6.5V9.6h-6.5c-1.3,0-1.9,0.6-1.9,1.9
	V13.8z"/>
<polygon id="XMLID_42_" class="st3" points="175.8,5.1 170.1,5.1 167,13.9 164.3,13.9 164.3,5.1 158.9,5.1 158.9,13.9 156.1,13.9 
	153,5.1 147.4,5.1 151.3,16.4 147.4,27.8 153,27.8 156.1,18.9 158.9,18.9 158.9,27.8 164.3,27.8 164.3,18.9 167,18.9 170.1,27.8 
	175.8,27.8 171.9,16.4 "/>
<g id="XMLID_3_">
	<path id="XMLID_38_" class="st4" d="M67,35.4c0,0.6-0.2,1-0.5,1.2C66.2,36.9,65.7,37,65,37h-1.2v0.6H62V37h-1.2
		c-0.7,0-1.2-0.1-1.5-0.4c-0.3-0.3-0.5-0.7-0.5-1.2v-1.6c0-0.6,0.2-1,0.5-1.2c0.3-0.3,0.8-0.4,1.5-0.4H62v-0.6h1.8v0.6H65
		c0.7,0,1.2,0.1,1.5,0.4s0.5,0.7,0.5,1.2V35.4z M60.6,35.4c0,0.3,0.2,0.5,0.6,0.5h0.9v-2.6h-0.9c-0.4,0-0.6,0.2-0.6,0.5V35.4z
		 M65.2,33.8c0-0.3-0.2-0.5-0.6-0.5h-0.9v2.6h0.9c0.4,0,0.6-0.2,0.6-0.5V33.8z"/>
	<path id="XMLID_36_" class="st4" d="M67.2,31.8h2l1.8,2.8l1.5-2.8h2l-2.5,4.4c-0.1,0.2-0.2,0.4-0.4,0.5c-0.1,0.2-0.3,0.3-0.5,0.4
		c-0.2,0.1-0.4,0.2-0.6,0.3c-0.2,0.1-0.5,0.1-0.8,0.1c-0.1,0-0.3,0-0.4,0c-0.1,0-0.2,0-0.4,0c-0.1,0-0.2,0-0.3,0v-1.1h0.9
		c0.1,0,0.2,0,0.2-0.1s0.1-0.1,0.1-0.1c0-0.1,0.1-0.1,0.1-0.2c0-0.1,0-0.1-0.1-0.2L67.2,31.8z"/>
	<path id="XMLID_34_" class="st4" d="M81.2,37.4h-1.8v-2.3h-2.5v2.3h-1.8v-5.6h1.8V34h2.5v-2.2h1.8V37.4z"/>
	<path id="XMLID_31_" class="st4" d="M83.6,31.8h5.2v4.5h0.7v2.2h-1.7l-0.1-1h-3.9l-0.1,1h-1.7v-2.2h0.6c0.1-0.1,0.2-0.2,0.3-0.3
		c0.1-0.1,0.1-0.2,0.2-0.4c0.1-0.1,0.1-0.3,0.1-0.5L83.6,31.8z M87.1,36.3V33h-1.8l-0.1,2c0,0.2,0,0.4-0.1,0.6
		c-0.1,0.2-0.1,0.3-0.2,0.4c-0.1,0.1-0.2,0.3-0.2,0.4H87.1z"/>
	<path id="XMLID_28_" class="st4" d="M91.9,37.4H90l2.6-5.6h2l2.6,5.6h-1.9l-0.4-1h-2.5L91.9,37.4z M92.8,35.4h1.6l-0.8-1.9
		L92.8,35.4z"/>
	<path id="XMLID_26_" class="st4" d="M104,34.3l-1.4,2h-1.4l-1.4-2v3.1H98v-5.6h1.9l2,3l2-3h1.9v5.6H104V34.3z"/>
	<path id="XMLID_24_" class="st4" d="M112.8,37.4h-5.5v-5.6h5.5V33H109V34h2.9v1.1H109v1.2h3.7V37.4z"/>
	<path id="XMLID_22_" class="st4" d="M119.9,37.4h-1.8v-2.3h-2.5v2.3h-1.8v-5.6h1.8V34h2.5v-2.2h1.8V37.4z"/>
	<path id="XMLID_20_" class="st4" d="M124.7,37.4h-1.8V33h-2.1v-1.1h6V33h-2.1V37.4z"/>
	<path id="XMLID_18_" class="st4" d="M137.1,37.4h-1.8v-2.3h-2.5v2.3H131v-5.6h1.8V34h2.5v-2.2h1.8V37.4z"/>
	<path id="XMLID_15_" class="st4" d="M139.8,37.4h-1.9l2.6-5.6h2l2.6,5.6h-1.9l-0.4-1h-2.5L139.8,37.4z M140.7,35.4h1.6l-0.8-1.9
		L140.7,35.4z"/>
	<path id="XMLID_11_" class="st4" d="M149.1,31.8h4c0.7,0,1.1,0.1,1.4,0.4c0.3,0.2,0.5,0.6,0.5,1.1c0,0.3-0.1,0.6-0.3,0.8
		c-0.2,0.2-0.4,0.3-0.6,0.4c0.1,0,0.3,0.1,0.4,0.2c0.1,0.1,0.3,0.2,0.4,0.3s0.2,0.3,0.3,0.4c0.1,0.2,0.1,0.4,0.1,0.6
		c0,0.5-0.2,0.9-0.5,1.2c-0.3,0.2-0.8,0.4-1.4,0.4h-4.3V31.8z M153.2,33.4c0-0.3-0.2-0.5-0.6-0.5h-1.7v1.1h1.7
		c0.4,0,0.6-0.2,0.6-0.5V33.4z M153.5,35.7c0-0.3-0.2-0.5-0.6-0.5h-2v1.1h2c0.4,0,0.6-0.2,0.6-0.5V35.7z"/>
	<path id="XMLID_9_" class="st4" d="M162,37.4h-5.5v-5.6h5.5V33h-3.7V34h2.9v1.1h-2.9v1.2h3.7V37.4z"/>
	<path id="XMLID_7_" class="st4" d="M167.2,34.6l1.9,2.8h-1.9l-1.5-2.3h-0.9v2.3h-1.8v-5.6h1.8V34h0.9l1-1.5
		c0.1-0.2,0.3-0.4,0.5-0.5c0.2-0.1,0.5-0.2,0.9-0.2c0.1,0,0.2,0,0.3,0s0.2,0,0.3,0c0.1,0,0.2,0,0.3,0v1.1h-0.4c-0.1,0-0.2,0-0.3,0.1
		c-0.1,0.1-0.1,0.1-0.2,0.2L167.2,34.6z"/>
	<path id="XMLID_4_" class="st4" d="M171.3,37.4h-1.9l2.6-5.6h2l2.6,5.6h-1.9l-0.4-1h-2.5L171.3,37.4z M172.2,35.4h1.6l-0.8-1.9
		L172.2,35.4z"/>
</g>
</svg>
