<?xml version="1.0" encoding="utf-8"?>
<!-- Generator: Adobe Illustrator 19.0.0, SVG Export Plug-In . SVG Version: 6.00 Build 0)  -->
<svg version="1.1" id="Слой_1" xmlns="http://www.w3.org/2000/svg" xmlns:xlink="http://www.w3.org/1999/xlink" x="0px" y="0px"
	 viewBox="-217 368.3 176.6 56.7" style="enable-background:new -217 368.3 176.6 56.7;" xml:space="preserve">
<style type="text/css">
	.st0{fill-rule:evenodd;clip-rule:evenodd;fill:#BBBAB2;}
	.st1{fill-rule:evenodd;clip-rule:evenodd;fill:#E7E8E2;}
	.st2{fill-rule:evenodd;clip-rule:evenodd;fill:#79746F;}
	.st3{fill:#1A1A1A;}
	.st4{fill:#79746F;}
</style>
<polygon class="st0" points="-212.7,403 -197.1,409.9 -175.9,404.3 -172,405.9 -197.1,412.8 -216.5,404 "/>
<polygon class="st1" points="-197.1,425 -216.5,405.9 -216.5,404 -197.1,412.8 "/>
<polygon class="st2" points="-197.1,425 -197.1,412.8 -172,405.9 -172,407.9 "/>
<polygon class="st2" points="-171.9,403.9 -175.9,405 -197.1,410.6 -197.1,401.9 -171.7,395.6 "/>
<polygon class="st1" points="-197.1,401.9 -197.1,410.6 -212.7,403.7 -216.6,402 -216.8,393.7 "/>
<polygon class="st0" points="-212.4,392.8 -197.1,399 -176.2,394 -171.7,395.6 -197.1,401.9 -216.8,393.7 "/>
<polygon class="st1" points="-212.4,393.8 -216.8,392 -217,383.5 -197.1,391 -197.1,400 "/>
<polygon class="st2" points="-176.2,395 -197.1,400 -197.1,391 -171.4,385.5 -171.6,393.9 "/>
<polygon class="st0" points="-171.4,385.5 -197.1,391 -217,383.5 -191.6,378.8 "/>
<polygon class="st1" points="-212.4,383.3 -216.8,381.5 -217,373.1 -197.1,380.6 -197.1,389.5 "/>
<polygon class="st2" points="-176.2,384.5 -197.1,389.5 -197.1,380.6 -171.4,375 -171.6,383.5 "/>
<polygon class="st0" points="-171.4,375 -197.1,380.6 -217,373.1 -191.6,368.3 "/>
<path class="st3" d="M-152.3,396.2c-2.1,0-3.7-0.5-4.7-1.5c-1-1-1.5-2.5-1.5-4.6v-10.3c0-2.2,0.5-3.9,1.5-4.9c1-1,2.7-1.5,4.9-1.5
	h11.7v4.5h-10.4c-1.3,0-1.9,0.6-1.9,1.9v10.3c0,0.5,0.1,0.9,0.4,1.2c0.3,0.3,0.7,0.4,1.2,0.4c0.4,0,0.9,0,1.4,0c0.5,0,1.1,0,1.7,0
	s1.2,0,1.8,0c0.6,0,1.2-0.1,1.7-0.3c1.3,0,2.7,0,4.1,0v4.2c-1.4,0.3-2.9,0.4-4.3,0.4c-1.2,0-2.5,0-3.9,0
	C-149.9,396.2-151.2,396.2-152.3,396.2z"/>
<path class="st3" d="M-137.7,373.4h12.9c2.1,0,3.7,0.5,4.7,1.4c1,1,1.5,2.4,1.5,4.4c0,1.3-0.3,2.3-0.8,3.2c-0.6,0.8-1.3,1.4-2.1,1.7
	c0.5,0.1,0.9,0.3,1.4,0.6c0.5,0.3,0.9,0.7,1.2,1.1c0.4,0.5,0.6,1.1,0.9,1.7c0.2,0.7,0.3,1.5,0.3,2.3c0,2.1-0.5,3.7-1.5,4.7
	c-1,1-2.5,1.5-4.7,1.5h-13.9V373.4z M-124.5,379.9c0-1.3-0.6-1.9-1.9-1.9h-5.5v4.5h5.5c1.3,0,1.9-0.6,1.9-1.9V379.9z M-123.5,388.9
	c0-1.3-0.6-1.9-1.9-1.9h-6.5v4.5h6.5c1.3,0,1.9-0.6,1.9-1.9V388.9z"/>
<path class="st3" d="M-110.7,396.1h-6.3l8.6-22.7h6.5l8.6,22.7h-6.3l-1.5-4h-8.1L-110.7,396.1z M-107.8,387.8h5.2l-2.6-7.6
	L-107.8,387.8z"/>
<path class="st3" d="M-72.3,396.1h-5.8v-7.4h-4.4l-4,7.4h-6.2l4.2-7.8c-1.4-0.3-2.4-1-3-2s-0.9-2.4-0.9-4.2v-2.3
	c0-2.3,0.5-3.9,1.5-4.9c1-1,2.7-1.5,4.9-1.5h13.6V396.1z M-86.6,382.1c0,1.3,0.6,1.9,1.9,1.9h6.5v-6.2h-6.5c-1.3,0-1.9,0.6-1.9,1.9
	V382.1z"/>
<polygon class="st3" points="-41.2,373.4 -46.9,373.4 -50,382.2 -52.7,382.2 -52.7,373.4 -58.1,373.4 -58.1,382.2 -60.9,382.2 
	-64,373.4 -69.6,373.4 -65.7,384.7 -69.6,396.1 -64,396.1 -60.9,387.2 -58.1,387.2 -58.1,396.1 -52.7,396.1 -52.7,387.2 -50,387.2 
	-46.9,396.1 -41.2,396.1 -45.1,384.7 "/>
<g>
	<path class="st4" d="M-150,403.7c0,0.6-0.2,1-0.5,1.2c-0.3,0.3-0.8,0.4-1.5,0.4h-1.2v0.6h-1.8v-0.6h-1.2c-0.7,0-1.2-0.1-1.5-0.4
		c-0.3-0.3-0.5-0.7-0.5-1.2v-1.6c0-0.6,0.2-1,0.5-1.2c0.3-0.3,0.8-0.4,1.5-0.4h1.2V400h1.8v0.6h1.2c0.7,0,1.2,0.1,1.5,0.4
		s0.5,0.7,0.5,1.2V403.7z M-156.4,403.7c0,0.3,0.2,0.5,0.6,0.5h0.9v-2.6h-0.9c-0.4,0-0.6,0.2-0.6,0.5V403.7z M-151.8,402.1
		c0-0.3-0.2-0.5-0.6-0.5h-0.9v2.6h0.9c0.4,0,0.6-0.2,0.6-0.5V402.1z"/>
	<path class="st4" d="M-149.8,400.1h2l1.8,2.8l1.5-2.8h2l-2.5,4.4c-0.1,0.2-0.2,0.4-0.4,0.5c-0.1,0.2-0.3,0.3-0.5,0.4
		c-0.2,0.1-0.4,0.2-0.6,0.3c-0.2,0.1-0.5,0.1-0.8,0.1c-0.1,0-0.3,0-0.4,0c-0.1,0-0.2,0-0.4,0c-0.1,0-0.2,0-0.3,0v-1.1h0.9
		c0.1,0,0.2,0,0.2-0.1s0.1-0.1,0.1-0.1c0-0.1,0.1-0.1,0.1-0.2c0-0.1,0-0.1-0.1-0.2L-149.8,400.1z"/>
	<path class="st4" d="M-135.8,405.7h-1.8v-2.3h-2.5v2.3h-1.8v-5.6h1.8v2.2h2.5v-2.2h1.8V405.7z"/>
	<path class="st4" d="M-133.4,400.1h5.2v4.5h0.7v2.2h-1.7l-0.1-1h-3.9l-0.1,1h-1.7v-2.2h0.6c0.1-0.1,0.2-0.2,0.3-0.3
		c0.1-0.1,0.1-0.2,0.2-0.4c0.1-0.1,0.1-0.3,0.1-0.5L-133.4,400.1z M-129.9,404.6v-3.4h-1.8l-0.1,2c0,0.2,0,0.4-0.1,0.6
		c-0.1,0.2-0.1,0.3-0.2,0.4c-0.1,0.1-0.2,0.3-0.2,0.4H-129.9z"/>
	<path class="st4" d="M-125.1,405.7h-1.9l2.6-5.6h2l2.6,5.6h-1.9l-0.4-1h-2.5L-125.1,405.7z M-124.2,403.7h1.6l-0.8-1.9
		L-124.2,403.7z"/>
	<path class="st4" d="M-113,402.6l-1.4,2h-1.4l-1.4-2v3.1h-1.8v-5.6h1.9l2,3l2-3h1.9v5.6h-1.8V402.6z"/>
	<path class="st4" d="M-104.2,405.7h-5.5v-5.6h5.5v1.1h-3.7v1.1h2.9v1.1h-2.9v1.2h3.7V405.7z"/>
	<path class="st4" d="M-97.1,405.7h-1.8v-2.3h-2.5v2.3h-1.8v-5.6h1.8v2.2h2.5v-2.2h1.8V405.7z"/>
	<path class="st4" d="M-92.3,405.7h-1.8v-4.5h-2.1v-1.1h6v1.1h-2.1V405.7z"/>
	<path class="st4" d="M-79.9,405.7h-1.8v-2.3h-2.5v2.3H-86v-5.6h1.8v2.2h2.5v-2.2h1.8V405.7z"/>
	<path class="st4" d="M-77.2,405.7h-1.9l2.6-5.6h2l2.6,5.6h-1.9l-0.4-1h-2.5L-77.2,405.7z M-76.3,403.7h1.6l-0.8-1.9L-76.3,403.7z"
		/>
	<path class="st4" d="M-67.9,400.1h4c0.7,0,1.1,0.1,1.4,0.4c0.3,0.2,0.5,0.6,0.5,1.1c0,0.3-0.1,0.6-0.3,0.8
		c-0.2,0.2-0.4,0.3-0.6,0.4c0.1,0,0.3,0.1,0.4,0.2c0.1,0.1,0.3,0.2,0.4,0.3s0.2,0.3,0.3,0.4c0.1,0.2,0.1,0.4,0.1,0.6
		c0,0.5-0.2,0.9-0.5,1.2c-0.3,0.2-0.8,0.4-1.4,0.4h-4.3V400.1z M-63.8,401.7c0-0.3-0.2-0.5-0.6-0.5h-1.7v1.1h1.7
		c0.4,0,0.6-0.2,0.6-0.5V401.7z M-63.5,404c0-0.3-0.2-0.5-0.6-0.5h-2v1.1h2c0.4,0,0.6-0.2,0.6-0.5V404z"/>
	<path class="st4" d="M-55,405.7h-5.5v-5.6h5.5v1.1h-3.7v1.1h2.9v1.1h-2.9v1.2h3.7V405.7z"/>
	<path class="st4" d="M-49.8,402.9l1.9,2.8h-1.9l-1.5-2.3h-0.9v2.3h-1.8v-5.6h1.8v2.2h0.9l1-1.5c0.1-0.2,0.3-0.4,0.5-0.5
		c0.2-0.1,0.5-0.2,0.9-0.2c0.1,0,0.2,0,0.3,0s0.2,0,0.3,0c0.1,0,0.2,0,0.3,0v1.1h-0.4c-0.1,0-0.2,0-0.3,0.1
		c-0.1,0.1-0.1,0.1-0.2,0.2L-49.8,402.9z"/>
	<path class="st4" d="M-45.7,405.7h-1.9l2.6-5.6h2l2.6,5.6h-1.9l-0.4-1h-2.5L-45.7,405.7z M-44.8,403.7h1.6l-0.8-1.9L-44.8,403.7z"
		/>
</g>
</svg>
